/* XPM */
static char *perso[] = {
/* columns rows colors chars-per-pixel */
"32 32 213 2 ",
"   c #050605",
".  c #0D0D0D",
"X  c #130E0E",
"o  c #1B140B",
"O  c #131313",
"+  c #161718",
"@  c #1B1B1B",
"#  c #1D1617",
"$  c #240F0E",
"%  c #381A0A",
"&  c #211D1B",
"*  c #321C1C",
"=  c #371414",
"-  c #31160E",
";  c #2F2206",
":  c #34240B",
">  c #342B1F",
",  c #352D1E",
"<  c #161B38",
"1  c #10122B",
"2  c #241928",
"3  c #1F2021",
"4  c #11203E",
"5  c #232323",
"6  c #2C2323",
"7  c #2B2B2B",
"8  c #292729",
"9  c #3B2223",
"0  c #312C2B",
"q  c #39262A",
"w  c #39382E",
"e  c #2E2F31",
"r  c #322E3E",
"t  c #2D3338",
"y  c #323333",
"u  c #3A3B39",
"i  c #353A32",
"p  c #471607",
"a  c #4C1A1A",
"s  c #461A1A",
"d  c #561C1C",
"f  c #571A19",
"g  c #6D0402",
"h  c #7A0702",
"j  c #6B1E1E",
"k  c #631B1B",
"l  c #42200F",
"z  c #522505",
"x  c #46330D",
"c  c #4B2917",
"v  c #493515",
"b  c #563C19",
"n  c #502917",
"m  c #76200E",
"M  c #652111",
"N  c #643C09",
"B  c #511E26",
"V  c #6E1F20",
"C  c #452628",
"Z  c #592A27",
"A  c #433B2C",
"S  c #40362A",
"D  c #533629",
"F  c #433937",
"G  c #5A3839",
"H  c #5D2B37",
"J  c #6D2323",
"K  c #682B2A",
"L  c #732423",
"P  c #792B2A",
"I  c #772E30",
"U  c #793733",
"Y  c #6E2A32",
"T  c #1A4D33",
"R  c #35452C",
"E  c #59481B",
"W  c #644418",
"Q  c #6A4618",
"!  c #724918",
"~  c #74551B",
"^  c #4E4828",
"/  c #554224",
"(  c #5B4929",
")  c #5C4D3C",
"_  c #584237",
"`  c #505330",
"'  c #614624",
"]  c #427539",
"[  c #7D693E",
"{  c #1D1F48",
"}  c #20264C",
"|  c #252643",
" . c #3D3745",
".. c #272A56",
"X. c #3F2C52",
"o. c #2D335A",
"O. c #343A5D",
"+. c #30375B",
"@. c #333C62",
"#. c #383B66",
"$. c #3E3E71",
"%. c #233D6D",
"&. c #582F40",
"*. c #4E3B4A",
"=. c #483C5A",
"-. c #4F374C",
";. c #2F6242",
":. c #3C4568",
">. c #484A47",
",. c #534443",
"<. c #524F4E",
"1. c #4D5547",
"2. c #55584A",
"3. c #4B4659",
"4. c #5A5A5A",
"5. c #585453",
"6. c #584758",
"7. c #694943",
"8. c #675041",
"9. c #715E5E",
"0. c #635253",
"q. c #56604D",
"w. c #5E6653",
"e. c #636C55",
"r. c #636A5B",
"t. c #68675F",
"y. c #6D755D",
"u. c #76775D",
"i. c #464B6A",
"p. c #414572",
"a. c #595A74",
"s. c #6B5F6F",
"d. c #655B7C",
"f. c #626363",
"g. c #6B6A6C",
"h. c #646666",
"j. c #6D7369",
"k. c #6D7466",
"l. c #747C64",
"z. c #737473",
"x. c #7C7D7D",
"c. c #787778",
"v. c #706773",
"b. c #910300",
"n. c #821A00",
"m. c #981106",
"M. c #94331E",
"N. c #99240B",
"B. c #B43100",
"V. c #A82400",
"C. c #822C2C",
"Z. c #8B3636",
"A. c #903736",
"S. c #925E15",
"D. c #85670F",
"F. c #AA7A00",
"G. c #876827",
"H. c #836939",
"J. c #CF4F00",
"K. c #C66B02",
"L. c #8B4043",
"P. c #A95252",
"I. c #856956",
"U. c #8A7B5B",
"Y. c #83694A",
"T. c #857A61",
"R. c #9C776A",
"E. c #AD716B",
"W. c #4D803A",
"Q. c #568936",
"!. c #61943F",
"~. c #679847",
"^. c #6B9E52",
"/. c #74A44C",
"(. c #77AB5A",
"). c #7FB255",
"_. c #79856B",
"`. c #D39310",
"'. c #D6A714",
"]. c #8A8759",
"[. c #828977",
"{. c #889579",
"}. c #979674",
"|. c #AA9B7D",
" X c #A28F69",
".X c #4F4E83",
"XX c #555984",
"oX c #746A85",
"OX c #7F7F80",
"+X c #6A6992",
"@X c #838383",
"#X c #8B8B8C",
"$X c #828489",
"%X c #8F9182",
"&X c #939393",
"*X c #9B9B9C",
"=X c #969993",
"-X c #9B8D82",
";X c #BD8E8E",
":X c #AB8484",
">X c #BFBF9C",
",X c #AAAB93",
"<X c #ABABAA",
"1X c #A4A5A4",
"2X c #B2B2B2",
"3X c #C4C29B",
"4X c #D7D3BC",
"5X c #EFDDB9",
"6X c #E3E4AC",
"7X c #D0D0C0",
"8X c #FCEFD3",
"9X c #F2ECE2",
"0X c None",
/* pixels */
"0X0X0X0X0Xg g h g 0X0X0X0X0X0X0X0X0X0X0X0X0X0X0X0X0X0X0X0X0X0X0X",
"0X0XT.4X9XE.L :XE.M.0X0X0X0X0X0X0X0X0X0X0X0X0X0X0X0X0X0X0X0X0X0X",
"0X0X|.8X5X:X7.7X4XR.N.0X0X0X0X0X0X0X0X0X0X0X0X0X0X0X0X0X0X0X0X0X",
"0X0X XU.y.<.<.>X3X-XM.m b Q 0X0X0X0X0X0X0X0X0X0X0X0X0X0X0X0X0X0X",
"0X0X0Xo ) u 5.<X*XA.f 0 w w S ( Q 0X0X0X0X0X0X0X0X0X0X0X0X0X0X0X",
"0X0X0X0XH.i T.;XE.m.V.M & 5 y y w / ! 0X0X0X0X0X0X0X0X0X0X0X0X0X",
"0X0X0X0X[ y Z m b.B.J.J.p @ y y y 7 A Q p 0X0X0X0X0X0X0X0X0X0X0X",
"0X0X0X0X( i w n h K.`.'.G.< 7 7 5 8 e b % ^ 0X0X0X0X0X0X0X0X0X0X",
"0X0X0X~ A e 7 # $ c F =.%.4 7 5 @ 3 8 E ^ ~.0X0XT 0XQ.Q.0X0X0X0X",
"S.0X! ^ y 0 y 7 & 2 * C 8 8 7 7 5 5 7 W ` ^.^.0X0X0X] !.).0X0X0X",
"0X0X0XH Z > * c 0 2 8 y t e y y e 8 0 W R /.(.;.0X0X/.).~.W.0X0X",
"0X0X0Xd I K P C.C.d d Z c C * 0 7 i A b ; 0X0X0X0X0X0X/.Q.0X0X0X",
"0X0X0X0X}.3X|.) I.U C = d J L f = * > x z 0X0X0X0X0X0X0X0X0X0X0X",
"0X0XF.D.}.6X,X_._.l.7 O . X * a P j q  .D v l 0X0X0X0X0X0X0X0X0X",
"0X0XF.~ e.2.w.l.r.r.i @ 5 @   = C.V B o.O.o.....0X0X0X0X0X0X0X0X",
"0X0X0XT.[.<X#Xc.c.c.z.f.7 . o J V k L =.#.=.H 6.p.@.O.g.@X0X0X0X",
"0X0X0X#X$XT.8.( G _ 2.f.4.y _ Z.A.V C.&.O.+.&.X.:.:.O.c.z.0X0X0X",
"0X0X0X@XOXk.2.D ! 8.k.k.f.r.s.I M.V V C +.:.O.} 0X..*.,.,.0X0X0X",
"0X0X0X*X2X$X=X%Xk.e.w.k.z.x.g.,.Y p p d C | | < 1 .Xs.Y.) 0X0X0X",
"0X0X0X&X1Xx.*X*X=Xz.f.&X#Xc.4.a.s.D z E N * 3 } ...X+XI.5.r 0X0X",
"0X0X0X4.#X*X$X&X#X&X*X#Xf.>.>.f.OX .5.U.H.s.p.@.O.i.v.#Xk.1.0X0X",
"0X0X0X0X2X2X*X&X=X=XT.s.y i i ` 0X@.+Xd.&.+XXX:.| 4 i._.{._.0X0X",
"0X0X0Xg.<X<X*X*X&X$X0X0X0X<.7 . 0X..XX6.d -.oX-.2 0X0X{.].G.e.i ",
"0X0X0X0X0X0XOX$X0X0X0X0Xj.0X0X0X0X0X .u f I L.f 0X0X0X_.u.u.q.w ",
"0X0X0X0X0X0X0X0X0X0X0X*Xj.0X0X0X0Xd K K d A.P.I 0X0X0Xe.q.0XR 0X",
"0X0X0X0X0X0X0X0X0X0X0X0X0X0X0X6 7 9 s a 0X0XP A.s 0X0X0X0X0X0X0X",
"0X0X0X0X0X0X0X0X0X0X0X0X0X0X0X' / 0 & X 0X0X9 q 5 # X 0X0X0X0X0X",
"0X0X0X0X0X0X0X0X0X0X0X0X0X0X0X0X; x x ; 0X0X5 w F , : 0X0X0X0X0X",
"0X0X0X0X0X0X0X0X0X0X0X0X0X0X0X. O O       0X0XE v v o 0X0X0X0X0X",
"0X0X0X0X0X0X0X0X0X0X0X0X0X0X0X# @ O + 5 8 7 7 + 3 8 + 0X0X0X0X0X",
"0X0X0X0X0X0X0X0X0X0X0X0X0X0X0X+ O @ @ 5 3 3 5 8 7 5 @ 0X0X0X0X0X",
"0X0X0X0X0X0X0X0X0X0X0X0X0X0X0X0X0X0X. O . O . @ 3 3 5 0X0X0X0X0X"
};
